<svg width="18" height="20" viewBox="0 0 18 20" fill="none" xmlns="http://www.w3.org/2000/svg">
<path d="M14.5172 10.5555C14.5078 8.95703 15.232 7.75234 16.6945 6.86406C15.8766 5.69219 14.6391 5.04766 13.0078 4.92344C11.4633 4.80156 9.77344 5.82344 9.15469 5.82344C8.50078 5.82344 7.00547 4.96563 5.82891 4.96563C3.40078 5.00313 0.820312 6.90156 0.820312 10.7641C0.820312 11.9055 1.02891 13.0844 1.44609 14.2984C2.00391 15.8969 4.01484 19.8133 6.1125 19.75C7.20937 19.7242 7.98516 18.9719 9.4125 18.9719C10.7977 18.9719 11.5148 19.75 12.7383 19.75C14.8547 19.7195 16.6734 16.1594 17.2031 14.5563C14.3648 13.218 14.5172 10.6375 14.5172 10.5555ZM12.0539 3.40703C13.2422 1.99609 13.1344 0.711719 13.0992 0.25C12.0492 0.310938 10.8352 0.964844 10.1437 1.76875C9.38203 2.63125 8.93437 3.69766 9.03047 4.9C10.1648 4.98672 11.2008 4.40313 12.0539 3.40703Z" fill="#313131"/>
</svg>
