<svg width="42" height="40" viewBox="0 0 42 40" fill="none" xmlns="http://www.w3.org/2000/svg">
<path d="M20.9999 5C18.2674 4.99912 15.5817 5.67531 13.2067 6.96212C10.8316 8.24893 8.84891 10.1021 7.45343 12.3395C6.05794 14.5769 5.29767 17.1216 5.2473 19.7235C5.19694 22.3255 5.85823 24.8951 7.16618 27.18L5.30243 33.405C5.23685 33.6236 5.2351 33.8551 5.29738 34.0745C5.35965 34.294 5.48359 34.4931 5.65585 34.6505C5.82811 34.8079 6.04217 34.9175 6.275 34.9676C6.50782 35.0178 6.75059 35.0065 6.97718 34.935L13.1144 32.9875C15.2062 34.1387 17.548 34.8162 19.9586 34.9675C22.3693 35.1189 24.7842 34.74 27.0165 33.8603C29.2489 32.9806 31.2388 31.6236 32.8323 29.8943C34.4259 28.165 35.5804 26.1097 36.2065 23.8875C36.8326 21.6653 36.9136 19.3356 36.4431 17.0788C35.9726 14.822 34.9633 12.6986 33.4933 10.8727C32.0233 9.04683 30.1319 7.56751 27.9655 6.54917C25.7991 5.53083 23.4158 5.00077 20.9999 5ZM15.7499 17.5C15.7499 17.1685 15.8882 16.8505 16.1344 16.6161C16.3805 16.3817 16.7143 16.25 17.0624 16.25H24.9374C25.2855 16.25 25.6194 16.3817 25.8655 16.6161C26.1117 16.8505 26.2499 17.1685 26.2499 17.5C26.2499 17.8315 26.1117 18.1495 25.8655 18.3839C25.6194 18.6183 25.2855 18.75 24.9374 18.75H17.0624C16.7143 18.75 16.3805 18.6183 16.1344 18.3839C15.8882 18.1495 15.7499 17.8315 15.7499 17.5ZM17.0624 21.25H22.3124C22.6605 21.25 22.9944 21.3817 23.2405 21.6161C23.4867 21.8505 23.6249 22.1685 23.6249 22.5C23.6249 22.8315 23.4867 23.1495 23.2405 23.3839C22.9944 23.6183 22.6605 23.75 22.3124 23.75H17.0624C16.7143 23.75 16.3805 23.6183 16.1344 23.3839C15.8882 23.1495 15.7499 22.8315 15.7499 22.5C15.7499 22.1685 15.8882 21.8505 16.1344 21.6161C16.3805 21.3817 16.7143 21.25 17.0624 21.25Z" fill="black"/>
</svg>
