<svg width="19" height="30" viewBox="0 0 19 30" fill="none" xmlns="http://www.w3.org/2000/svg">
<path d="M9.00007 1.44482C8.13369 1.44482 7.3028 1.83487 6.69018 2.52916C6.07756 3.22345 5.7334 4.1651 5.7334 5.14698V15.0194C5.7334 16.0013 6.07756 16.9429 6.69018 17.6372C7.3028 18.3315 8.13369 18.7215 9.00007 18.7215C9.86644 18.7215 10.6973 18.3315 11.3099 17.6372C11.9226 16.9429 12.2667 16.0013 12.2667 15.0194V5.14698C12.2667 4.1651 11.9226 3.22345 11.3099 2.52916C10.6973 1.83487 9.86644 1.44482 9.00007 1.44482Z" fill="white" stroke="white" stroke-width="2" stroke-linecap="round" stroke-linejoin="round"/>
<path d="M17.8669 12.0029V14.5624C17.8669 16.9383 16.9819 19.2169 15.4066 20.8969C13.8313 22.5769 11.6947 23.5207 9.46689 23.5207C7.23908 23.5207 5.1025 22.5769 3.5272 20.8969C1.95189 19.2169 1.06689 16.9383 1.06689 14.5624V12.0029" stroke="white" stroke-width="2" stroke-linecap="round" stroke-linejoin="round"/>
<path d="M9.4668 23.5205V28.3196" stroke="white" stroke-width="2" stroke-linecap="round" stroke-linejoin="round"/>
<path d="M3.8667 28.3198H14.1334" stroke="white" stroke-width="2" stroke-linecap="round" stroke-linejoin="round"/>
</svg>
