<svg width="36" height="32" viewBox="0 0 36 32" fill="none" xmlns="http://www.w3.org/2000/svg">
<path d="M25.2667 30.8609V27.543C25.2667 25.7831 24.6275 24.0953 23.4898 22.8508C22.3521 21.6064 20.809 20.9072 19.2 20.9072H7.06667C5.45769 20.9072 3.91461 21.6064 2.77689 22.8508C1.63916 24.0953 1 25.7831 1 27.543V30.8609" fill="black"/>
<path d="M25.2667 30.8609V27.543C25.2667 25.7831 24.6275 24.0953 23.4898 22.8508C22.3521 21.6064 20.809 20.9072 19.2 20.9072H7.06667C5.45769 20.9072 3.91461 21.6064 2.77689 22.8508C1.63916 24.0953 1 25.7831 1 27.543V30.8609" stroke="black" stroke-width="2" stroke-linecap="round" stroke-linejoin="round"/>
<path d="M13.5999 13.9398C16.9504 13.9398 19.6665 11.0431 19.6665 7.46988C19.6665 3.89666 16.9504 1 13.5999 1C10.2493 1 7.5332 3.89666 7.5332 7.46988C7.5332 11.0431 10.2493 13.9398 13.5999 13.9398Z" fill="black" stroke="black" stroke-width="2" stroke-linecap="round" stroke-linejoin="round"/>
<path d="M34.6 30.8609V27.4695C34.5992 25.9667 34.2321 24.5068 33.5564 23.319C32.8807 22.1313 31.9346 21.2829 30.8667 20.9072" fill="black"/>
<path d="M34.6 30.8609V27.4695C34.5992 25.9667 34.2321 24.5068 33.5564 23.319C32.8807 22.1313 31.9346 21.2829 30.8667 20.9072" stroke="black" stroke-width="2" stroke-linecap="round" stroke-linejoin="round"/>
<path d="M23.3999 1C24.7348 1.36782 25.918 2.20332 26.763 3.37476C27.6079 4.54619 28.0666 5.98695 28.0666 7.46988C28.0666 8.95281 27.6079 10.3936 26.763 11.565C25.918 12.7364 24.7348 13.5719 23.3999 13.9398" fill="black"/>
<path d="M23.3999 1C24.7348 1.36782 25.918 2.20332 26.763 3.37476C27.6079 4.54619 28.0666 5.98695 28.0666 7.46988C28.0666 8.95281 27.6079 10.3936 26.763 11.565C25.918 12.7364 24.7348 13.5719 23.3999 13.9398" stroke="black" stroke-width="2" stroke-linecap="round" stroke-linejoin="round"/>
</svg>
