<svg width="38" height="39" viewBox="0 0 38 39" fill="none" xmlns="http://www.w3.org/2000/svg">
<path d="M18.2398 15.4375L18.2413 34.125H10.2788C9.01998 34.1251 7.80884 33.6092 6.89372 32.6831C5.9786 31.757 5.42885 30.4909 5.35719 29.1444L5.34961 28.847V15.4359L18.2398 15.4375ZM20.5148 25.1859H33.4079V28.847C33.4079 30.2477 32.8886 31.591 31.9642 32.5814C31.0398 33.5718 29.7861 34.1282 28.4788 34.1282L20.5163 34.125L20.5148 25.1859ZM28.4803 4.06087C29.7391 4.06076 30.9502 4.57664 31.8653 5.50274C32.7805 6.42884 33.3302 7.69497 33.4019 9.04149L33.4095 9.34049L33.4079 22.7484H20.5148L20.5163 4.05924L28.4803 4.06087ZM18.2413 4.05762L18.2398 13H5.34961V9.34049C5.34961 7.93982 5.86893 6.59651 6.79333 5.60608C7.71773 4.61566 8.97148 4.05924 10.2788 4.05924L18.2413 4.05762Z" fill="white"/>
</svg>
