<svg width="33" height="24" viewBox="0 0 33 24" fill="none" xmlns="http://www.w3.org/2000/svg">
<rect x="1.6665" y="1" width="29.7333" height="22" rx="4" stroke="white" stroke-width="2"/>
<path d="M14.5547 14.1567H16.082C16.0433 14.9868 15.8745 15.7035 15.5757 16.3066C15.2824 16.9043 14.8535 17.3636 14.2891 17.6846C13.7301 18.0055 13.0301 18.166 12.189 18.166C11.5858 18.166 11.0407 18.047 10.5537 17.8091C10.0667 17.5711 9.64893 17.2308 9.30029 16.7881C8.95719 16.3398 8.69434 15.8031 8.51172 15.1777C8.3291 14.5524 8.23779 13.8496 8.23779 13.0693V10.8364C8.23779 10.0617 8.3291 9.36165 8.51172 8.73633C8.69987 8.111 8.96826 7.57699 9.31689 7.13428C9.67106 6.68604 10.0999 6.34294 10.6035 6.10498C11.1126 5.86702 11.6882 5.74805 12.3301 5.74805C13.1159 5.74805 13.7799 5.90576 14.3223 6.22119C14.8701 6.53109 15.2907 6.98763 15.584 7.59082C15.8828 8.18848 16.0488 8.92171 16.082 9.79053H14.5547C14.516 9.15413 14.4163 8.63672 14.2559 8.23828C14.0954 7.83431 13.8574 7.53825 13.542 7.3501C13.2321 7.15641 12.8281 7.05957 12.3301 7.05957C11.8874 7.05957 11.5028 7.14811 11.1763 7.3252C10.8553 7.50228 10.5897 7.75684 10.3794 8.08887C10.1746 8.41536 10.0197 8.81104 9.91455 9.27588C9.81494 9.73519 9.76514 10.2498 9.76514 10.8198V13.0693C9.76514 13.6006 9.80664 14.0959 9.88965 14.5552C9.97819 15.0145 10.1165 15.4185 10.3047 15.7671C10.4984 16.1102 10.7502 16.3786 11.0601 16.5723C11.37 16.766 11.7463 16.8628 12.189 16.8628C12.7479 16.8628 13.1906 16.7715 13.5171 16.5889C13.8436 16.4062 14.0843 16.1157 14.2393 15.7173C14.3997 15.3188 14.5049 14.7987 14.5547 14.1567ZM24.2002 14.1567H25.7275C25.6888 14.9868 25.52 15.7035 25.2212 16.3066C24.9279 16.9043 24.499 17.3636 23.9346 17.6846C23.3757 18.0055 22.6756 18.166 21.8345 18.166C21.2313 18.166 20.6862 18.047 20.1992 17.8091C19.7122 17.5711 19.2944 17.2308 18.9458 16.7881C18.6027 16.3398 18.3398 15.8031 18.1572 15.1777C17.9746 14.5524 17.8833 13.8496 17.8833 13.0693V10.8364C17.8833 10.0617 17.9746 9.36165 18.1572 8.73633C18.3454 8.111 18.6138 7.57699 18.9624 7.13428C19.3166 6.68604 19.7454 6.34294 20.249 6.10498C20.7581 5.86702 21.3337 5.74805 21.9756 5.74805C22.7614 5.74805 23.4255 5.90576 23.9678 6.22119C24.5156 6.53109 24.9362 6.98763 25.2295 7.59082C25.5283 8.18848 25.6943 8.92171 25.7275 9.79053H24.2002C24.1615 9.15413 24.0618 8.63672 23.9014 8.23828C23.7409 7.83431 23.5029 7.53825 23.1875 7.3501C22.8776 7.15641 22.4736 7.05957 21.9756 7.05957C21.5329 7.05957 21.1483 7.14811 20.8218 7.3252C20.5008 7.50228 20.2352 7.75684 20.0249 8.08887C19.8201 8.41536 19.6652 8.81104 19.5601 9.27588C19.4604 9.73519 19.4106 10.2498 19.4106 10.8198V13.0693C19.4106 13.6006 19.4521 14.0959 19.5352 14.5552C19.6237 15.0145 19.762 15.4185 19.9502 15.7671C20.1439 16.1102 20.3957 16.3786 20.7056 16.5723C21.0155 16.766 21.3918 16.8628 21.8345 16.8628C22.3934 16.8628 22.8361 16.7715 23.1626 16.5889C23.4891 16.4062 23.7298 16.1157 23.8848 15.7173C24.0452 15.3188 24.1504 14.7987 24.2002 14.1567Z" fill="white"/>
</svg>
