<svg width="29" height="30" viewBox="0 0 29 30" fill="none" xmlns="http://www.w3.org/2000/svg">
<path d="M22.6155 4.29458C22.1859 4.29458 21.7784 4.39639 21.4117 4.57744C21.1629 3.14128 19.9857 2.05008 18.5743 2.05008C18.1309 2.05008 17.7107 2.15796 17.3349 2.35021C17.0237 1.00237 15.8858 0 14.533 0C13.1803 0 12.0424 1.00243 11.7311 2.35021C11.3554 2.15802 10.9352 2.05008 10.4918 2.05008C8.90013 2.05008 7.6052 3.43751 7.6052 5.14287V12.703C7.25136 12.5368 6.86098 12.444 6.45056 12.444C4.85889 12.444 3.56396 13.8314 3.56396 15.5368V21.8969C3.56396 26.3649 6.95664 30 11.1269 30H17.9392C22.1094 30 25.5021 26.3649 25.5021 21.8969V7.38736C25.5021 5.68194 24.2072 4.29458 22.6155 4.29458ZM23.7702 21.8969C23.7702 25.3417 21.1544 28.1443 17.9392 28.1443H11.1269C7.9117 28.1443 5.29592 25.3417 5.29592 21.8969V15.5368C5.29592 14.8546 5.81389 14.2997 6.45056 14.2997C7.08723 14.2997 7.6052 14.8546 7.6052 15.5368V20.4852H9.33716V5.14287C9.33716 4.46072 9.85513 3.90575 10.4918 3.90575C11.1285 3.90575 11.6464 4.46072 11.6464 5.14287V14.9182H13.3784V3.09278C13.3784 2.41064 13.8964 1.85567 14.533 1.85567C15.1697 1.85567 15.6877 2.41064 15.6877 3.09278V14.9182H17.4196V5.14287C17.4196 4.46072 17.9376 3.90575 18.5743 3.90575C19.2109 3.90575 19.7289 4.46072 19.7289 5.14287V14.9182H21.4609V7.3873C21.4609 6.70515 21.9788 6.15019 22.6155 6.15019C23.2522 6.15019 23.7702 6.70515 23.7702 7.3873V21.8969Z" fill="white"/>
</svg>
